<svg width="126" height="44" viewBox="0 0 126 44" fill="none" xmlns="http://www.w3.org/2000/svg">
<path d="M67.1157 5.81341V18.6895H65.0004V9.51067L61.0824 15.9855H60.8249L56.9069 9.49228V18.6895H54.7915V5.81341H57.0724L60.9536 12.2514L64.8532 5.81341H67.1157ZM78.6227 18.6895L77.7214 16.0958H72.2398L71.3385 18.6895H69.0392L73.7114 5.81341H76.2498L80.9036 18.6895H78.6227ZM72.9388 14.1093H77.0224L74.9806 8.29665L72.9388 14.1093ZM90.1794 18.6895L87.457 13.9989H84.9554V18.6895H82.84V5.81341H87.9904C89.1432 5.81341 90.1181 6.21808 90.9151 7.02744C91.7245 7.82452 92.1292 8.79942 92.1292 9.95214C92.1292 10.7738 91.89 11.5279 91.4118 12.2146C90.9458 12.8891 90.3327 13.3796 89.5724 13.6862L92.4971 18.6895H90.1794ZM84.9554 7.8V12.1043H87.9904C88.5545 12.1043 89.0328 11.8958 89.4252 11.4789C89.8176 11.0619 90.0138 10.553 90.0138 9.95214C90.0138 9.35125 89.8176 8.84234 89.4252 8.42541C89.0328 8.00847 88.5545 7.8 87.9904 7.8H84.9554ZM107.109 12.0307V12.9136C107.109 14.6795 106.527 16.1265 105.362 17.2547C104.197 18.3706 102.676 18.9286 100.8 18.9286C98.8136 18.9286 97.1704 18.2848 95.8706 16.9972C94.5829 15.7096 93.9391 14.1277 93.9391 12.2514C93.9391 10.3875 94.5829 8.81169 95.8706 7.52408C97.1704 6.22421 98.7769 5.57428 100.69 5.57428C101.892 5.57428 102.989 5.8502 103.982 6.40203C104.976 6.95386 105.748 7.69576 106.3 8.62774L104.479 9.67622C104.136 9.06308 103.627 8.57256 102.952 8.20467C102.278 7.82452 101.524 7.63445 100.69 7.63445C99.341 7.63445 98.2312 8.07591 97.3605 8.95884C96.4898 9.84177 96.0545 10.9454 96.0545 12.2698C96.0545 13.5942 96.4898 14.6917 97.3605 15.5624C98.2434 16.4331 99.3961 16.8684 100.819 16.8684C101.959 16.8684 102.885 16.6048 103.596 16.0775C104.32 15.5379 104.78 14.8205 104.976 13.9253H100.671V12.0307H107.109ZM109.595 5.81341H111.711V18.6895H109.595V5.81341ZM122.561 5.81341H124.676V18.6895H123.021L116.951 9.95214V18.6895H114.835V5.81341H116.491L122.561 14.5507V5.81341Z" fill="white"/>
<path d="M59.0774 36.6141C57.8388 36.6141 56.7842 36.3321 55.9136 35.768C55.0552 35.2039 54.4543 34.4313 54.1109 33.4503L55.932 32.3834C56.447 33.8304 57.5139 34.554 59.1326 34.554C59.9297 34.554 60.5244 34.4007 60.9168 34.0941C61.3215 33.7753 61.5238 33.3645 61.5238 32.8617C61.5238 32.3344 61.3092 31.9358 60.88 31.666C60.4508 31.384 59.6905 31.0774 58.5991 30.7463C57.986 30.5624 57.4893 30.3907 57.1092 30.2313C56.729 30.0719 56.3244 29.8511 55.8952 29.5691C55.4782 29.2748 55.1655 28.913 54.9571 28.4838C54.7486 28.0546 54.6444 27.5518 54.6444 26.9755C54.6444 25.835 55.049 24.9337 55.8584 24.2715C56.6677 23.5971 57.6426 23.2598 58.7831 23.2598C59.8132 23.2598 60.7145 23.5112 61.4871 24.014C62.2596 24.5168 62.8544 25.2096 63.2713 26.0926L61.4871 27.1226C60.9475 25.9209 60.0462 25.32 58.7831 25.32C58.1699 25.32 57.6794 25.4672 57.3115 25.7615C56.9436 26.0435 56.7597 26.4298 56.7597 26.9203C56.7597 27.3986 56.9436 27.7787 57.3115 28.0608C57.6917 28.3305 58.3723 28.6187 59.3533 28.9253C59.8438 29.0847 60.1994 29.2073 60.4202 29.2932C60.6532 29.3668 60.972 29.4894 61.3767 29.6611C61.7936 29.8327 62.1063 30.0044 62.3148 30.1761C62.5233 30.3478 62.744 30.5624 62.977 30.8199C63.2223 31.0774 63.3939 31.3717 63.492 31.7028C63.5901 32.0339 63.6392 32.408 63.6392 32.8249C63.6392 33.9899 63.2161 34.9157 62.37 35.6024C61.5361 36.2769 60.4386 36.6141 59.0774 36.6141ZM70.6694 23.499C71.8835 23.499 72.8951 23.9036 73.7045 24.713C74.5261 25.5223 74.9369 26.5279 74.9369 27.7297C74.9369 28.9192 74.5261 29.9247 73.7045 30.7463C72.8951 31.5557 71.8835 31.9604 70.6694 31.9604H68.039V36.375H65.9237V23.499H70.6694ZM70.6694 29.9738C71.2948 29.9738 71.8099 29.7653 72.2146 29.3484C72.6192 28.9192 72.8216 28.3796 72.8216 27.7297C72.8216 27.0797 72.6192 26.5463 72.2146 26.1293C71.8099 25.7001 71.2948 25.4855 70.6694 25.4855H68.039V29.9738H70.6694ZM84.4198 36.375L83.5185 33.7814H78.0369L77.1356 36.375H74.8363L79.5085 23.499H82.0469L86.7007 36.375H84.4198ZM78.7359 31.7948H82.8195L80.7777 25.9822L78.7359 31.7948ZM94.2406 36.6141C92.3031 36.6141 90.6967 35.9765 89.4213 34.7011C88.146 33.4135 87.5083 31.8255 87.5083 29.937C87.5083 28.0485 88.146 26.4666 89.4213 25.1912C90.6967 23.9036 92.3031 23.2598 94.2406 23.2598C95.4056 23.2598 96.4786 23.5357 97.4596 24.0876C98.4529 24.6394 99.2255 25.3874 99.7773 26.3317L97.9379 27.3986C97.5945 26.7609 97.0918 26.2581 96.4296 25.8902C95.7796 25.5101 95.05 25.32 94.2406 25.32C92.8672 25.32 91.7513 25.7553 90.8929 26.626C90.0467 27.4967 89.6237 28.6003 89.6237 29.937C89.6237 31.2736 90.0467 32.3773 90.8929 33.248C91.7513 34.1186 92.8672 34.554 94.2406 34.554C95.05 34.554 95.7858 34.37 96.448 34.0021C97.1102 33.622 97.6068 33.1131 97.9379 32.4754L99.7773 33.5239C99.2378 34.4681 98.4713 35.2223 97.478 35.7864C96.497 36.3382 95.4179 36.6141 94.2406 36.6141ZM104.202 34.3516H109.904V36.375H102.087V23.499H109.812V25.5223H104.202V28.8701H109.352V30.8751H104.202V34.3516Z" fill="white"/>
<rect width="44" height="44" rx="11.8051" fill="url(#paint0_linear_39_4393)"/>
<rect x="20.2212" y="12" width="4.02569" height="4.62448" rx="0.597693" transform="rotate(90 20.2212 12)" fill="black"/>
<rect width="4.02569" height="4.62448" rx="0.597693" transform="matrix(3.71822e-08 1 1 -5.13871e-08 24.1333 12)" fill="black"/>
<rect width="3.81521" height="4.30389" rx="0.597693" transform="matrix(3.75387e-08 1 1 -5.08991e-08 24.2939 28.5684)" fill="black"/>
<rect x="11.6245" y="23.8848" width="8.41114" height="4.62448" rx="0.597693" transform="rotate(90 11.6245 23.8848)" fill="black"/>
<rect width="8.41114" height="4.62448" rx="0.597693" transform="matrix(3.75387e-08 1 1 -5.08991e-08 32.7363 23.8848)" fill="black"/>
<rect x="15.9409" y="15.791" width="8.41114" height="4.62448" rx="0.597693" transform="rotate(90 15.9409 15.791)" fill="black"/>
<rect width="8.41114" height="4.62448" rx="0.597693" transform="matrix(3.75387e-08 1 1 -5.08991e-08 28.3867 15.791)" fill="black"/>
<rect width="8.41114" height="4.62448" rx="0.597693" transform="matrix(3.75387e-08 1 1 -5.08991e-08 19.8682 15.791)" fill="black"/>
<defs>
<linearGradient id="paint0_linear_39_4393" x1="31.8333" y1="13.4175" x2="-6.72872" y2="26.5979" gradientUnits="userSpaceOnUse">
<stop stop-color="#D58438"/>
<stop offset="1" stop-color="#D54D27"/>
</linearGradient>
</defs>
</svg>
